# xmcd CD database file
#
# Track frame offsets:
#	150
#	19454
#	39059
#	59201
#	78488
#	98093
#
# Disc length: 1577 seconds
#
# Revision: 2
# Processed by: cddbd v1.5.2PL0 Copyright (c) Steve Scherf et al.
# Submitted via: CDex 1.70beta2
#
DISCID=47062706
DTITLE=前田敦子 - Flower
DYEAR=2011
DGENRE=JPop
TTITLE0=Flower
TTITLE1=この胸のメロディー
TTITLE2=夜明けまで
TTITLE3=Flower (off vocal ver.)
TTITLE4=この胸のメロディー (off vocal ver.)
TTITLE5=夜明けまで (off vocal ver.)
EXTD=YEAR: 2011
EXTT0=
EXTT1=
EXTT2=
EXTT3=
EXTT4=
EXTT5=
PLAYORDER=
